<?xml version="1.0" encoding="UTF-8"?>
<svg version="1.1" xmlns="http://www.w3.org/2000/svg" width="3840" height="2160">
<path d="M0 0 C3.76227501 0.00314728 7.52454726 0.0002845 11.28682242 -0.00170688 C17.86549368 -0.00440643 24.4441562 -0.00348859 31.022827 -0.00004573 C40.8708179 0.00508763 50.71880272 0.0043141 60.56679448 0.00248769 C77.35987191 -0.0004609 94.15294583 0.00127371 110.94602282 0.00563198 C127.94218882 0.01002341 144.93835301 0.01220302 161.9345196 0.01172977 C163.5499294 0.01168673 163.5499294 0.01168673 165.19797375 0.01164282 C170.69012715 0.01148643 176.18228055 0.01129448 181.67443395 0.01108999 C221.33954478 0.00968563 261.00465401 0.01310238 300.66976435 0.01910739 C339.93096565 0.02503701 379.19216627 0.02888392 418.45336802 0.02996021 C419.67427496 0.02999462 420.8951819 0.03002903 422.15308602 0.03006449 C433.30477335 0.0303777 444.45646069 0.03066539 455.60814802 0.03092246 C483.32558336 0.03156172 511.04301869 0.03252096 538.76045401 0.03369766 C540.65339449 0.03377763 540.65339449 0.03377763 542.5845762 0.03385923 C603.91841595 0.0364785 665.25225526 0.04278513 726.58609469 0.049398 C747.86081392 0.05168973 769.13553316 0.05396513 790.4102524 0.0561729 C791.72977668 0.05630985 793.04930096 0.0564468 794.40881082 0.0565879 C855.79130812 0.06293619 917.17380549 0.06665892 978.55630305 0.0697077 C982.54305561 0.06990576 986.52980816 0.07010495 990.51656072 0.07030437 C1016.93777149 0.0716242 1043.35898227 0.07289884 1069.78019304 0.07414323 C1122.34838123 0.0766195 1174.9165694 0.07936118 1227.48475756 0.08228528 C1229.98798946 0.08242452 1232.49122137 0.08256358 1234.99445327 0.08270244 C1347.63274803 0.08895266 1460.27104246 0.09828971 1572.90933688 0.10896831 C1573.9636678 0.10906825 1575.01799872 0.10916818 1576.10427906 0.10927114 C1628.83072088 0.11427124 1681.55716268 0.11944522 1734.28360445 0.12483745 C1733.33638492 1.23775647 1732.38803906 2.34971691 1731.43922694 3.46127849 C1730.91123936 4.08060536 1730.38325178 4.69993223 1729.83926458 5.33802658 C1727.75948601 7.72683304 1725.56138409 9.97426811 1723.32315524 12.2146812 C1722.63885943 12.90160549 1722.63885943 12.90160549 1721.94073946 13.60240703 C1720.45594228 15.09154774 1718.96758557 16.57706774 1717.47891695 18.06233745 C1716.43033996 19.11158975 1715.38191131 20.16099032 1714.33362276 21.21053081 C1712.14490437 23.40071614 1709.95440697 25.58910193 1707.76260836 27.77620464 C1704.9733074 30.55981605 1702.18851176 33.34788451 1699.40505106 36.1373344 C1697.24311552 38.30290884 1695.07877252 40.46606466 1692.91372759 42.62853008 C1691.88689409 43.65470312 1690.86078442 44.68160106 1689.83545763 45.70927959 C1680.87118681 54.68959758 1680.87118681 54.68959758 1676.4022568 58.50179058 C1671.0315733 63.1106068 1666.10929965 68.18875272 1661.12611849 73.20715862 C1659.27744571 75.06875777 1657.42552484 76.92707249 1655.57278902 78.78462749 C1651.64022335 82.7285431 1647.71161547 86.67638621 1643.78360445 90.62483745 C1639.22676662 95.20538774 1634.66826038 99.78425194 1630.10548861 104.35889202 C1628.29334641 106.17745036 1626.48427602 107.99902541 1624.67532809 109.8207603 C1619.71882169 114.79907499 1614.7433146 119.67512685 1609.39603121 124.23726421 C1604.84925843 128.30006383 1600.60623652 132.69610759 1596.31131442 137.02196269 C1594.4962488 138.84995924 1592.67793144 140.67466701 1590.85879977 142.49861675 C1586.9975626 146.37120167 1583.1402845 150.24771479 1579.28360445 154.12483745 C1574.8093744 158.62278349 1570.33347376 163.11904092 1565.8533066 167.61107402 C1564.0744019 169.3963929 1562.2985705 171.18472884 1560.52286227 172.97322612 C1551.57265732 181.96354231 1551.57265732 181.96354231 1547.29727633 185.61116558 C1541.95337828 190.17301284 1537.07330515 195.22500165 1532.12611849 200.20715862 C1530.27744571 202.06875777 1528.42552484 203.92707249 1526.57278902 205.78462749 C1522.64022335 209.7285431 1518.71161547 213.67638621 1514.78360445 217.62483745 C1510.22676662 222.20538774 1505.66826038 226.78425194 1501.10548861 231.35889202 C1499.29334641 233.17745036 1497.48427602 234.99902541 1495.67532809 236.8207603 C1490.71882169 241.79907499 1485.7433146 246.67512685 1480.39603121 251.23726421 C1475.84925843 255.30006383 1471.60623652 259.69610759 1467.31131442 264.02196269 C1465.4962488 265.84995924 1463.67793144 267.67466701 1461.85879977 269.49861675 C1457.9975626 273.37120167 1454.1402845 277.24771479 1450.28360445 281.12483745 C1445.8093744 285.62278349 1441.33347376 290.11904092 1436.8533066 294.61107402 C1435.0744019 296.3963929 1433.2985705 298.18472884 1431.52286227 299.97322612 C1430.41721856 301.08250707 1429.31143155 302.19164522 1428.20547945 303.3006187 C1427.72316866 303.78809581 1427.24085787 304.27557292 1426.7439316 304.77782207 C1424.09648138 307.42566885 1421.37561166 309.89381961 1418.5020163 312.29544004 C1415.0349766 315.31692862 1412.22153888 318.50603746 1409.42636606 322.14560922 C1397.42975463 337.72147381 1384.53236108 352.10856974 1364.24276148 354.78696915 C1352.4943507 355.91372491 1340.69429139 355.70137796 1328.91115629 355.42669069 C1322.83335899 355.32058716 1316.75893434 355.38302039 1310.68084787 355.43864267 C1298.12504571 355.54777347 1285.57490224 355.49399743 1273.01969416 355.34748798 C1260.32023632 355.19998874 1247.62378458 355.13044793 1234.92345316 355.15342098 C1234.11736399 355.15483418 1233.31127481 355.15624739 1232.48075868 355.15770342 C1228.36935952 355.1652656 1224.257964 355.17407552 1220.14656834 355.18332871 C1190.47622961 355.24758919 1160.8084302 355.14370436 1131.1387604 354.94945484 C1101.74386871 354.75753482 1072.35016331 354.63991047 1042.95463259 354.61984592 C1042.03909755 354.61918882 1041.12356252 354.61853173 1040.180284 354.61785472 C1030.8828264 354.61123368 1021.58536844 354.60599185 1012.28790953 354.60162701 C992.43082317 354.59217022 972.5737529 354.57100404 952.71668322 354.54388099 C951.77006376 354.54259741 950.82344429 354.54131383 949.84813939 354.53999135 C903.84986321 354.47666488 857.85224302 354.28535706 811.85440524 354.08260112 C795.9070423 354.01239148 779.95967742 353.94268296 764.01230318 353.87508159 C763.02349815 353.87088841 762.03469311 353.86669524 761.01592429 353.86237499 C715.11053203 353.6684018 669.20505933 353.5599754 623.29935063 353.47484671 C620.32102766 353.46932136 617.34270477 353.46375565 614.36438189 353.45818203 C590.70177118 353.4139828 567.0391559 353.37263941 543.37653798 353.33250917 C507.87385773 353.27225847 472.37118573 353.20757944 436.86851965 353.13950035 C434.04905167 353.13410702 431.22958363 353.12875257 428.41011555 353.12340839 C376.10475155 353.02411927 323.79969521 352.88195199 271.49458352 352.69147078 C261.00085736 352.65327045 250.50712718 352.61640112 240.01339336 352.58036982 C234.89974058 352.56280368 229.78608818 352.54512711 224.67243573 352.52746402 C223.83739906 352.52457978 223.00236239 352.52169554 222.14202157 352.5187239 C221.3095296 352.51584824 220.47703762 352.51297257 219.61931862 352.51000977 C217.11223957 352.50135989 214.60516041 352.49274048 212.09808125 352.48412331 C193.69839342 352.42076739 175.29875161 352.351901 156.89913718 352.26982251 C144.39805624 352.21413408 131.89696481 352.16602327 119.39582588 352.1253392 C112.73763529 352.10341337 106.07951857 352.07782439 99.42138449 352.04187357 C6.80916945 351.54896354 -88.71304846 353.84196003 -249.71639555 408.12483745 C-250.65144926 408.60001811 -251.58650297 409.07519878 -252.54989164 409.56477886 C-280.7221129 424.0305222 -306.44630214 442.87609197 -330.71639555 463.12483745 C-331.30678617 463.6161314 -331.8971768 464.10742534 -332.50545805 464.61360698 C-338.94088018 469.97946484 -345.26438738 475.45420262 -351.46639555 481.0896812 C-353.4662893 482.89861288 -355.48908987 484.67375546 -357.52889555 486.43733745 C-362.75936742 490.99830892 -367.83279895 495.73060273 -372.91610258 500.45393901 C-374.75148305 502.15740307 -376.59119728 503.85609849 -378.4312393 505.55452495 C-385.1458078 511.76901698 -391.76256086 518.05078929 -398.15389555 524.59920269 C-400.72889701 527.21926667 -403.35416324 529.69172579 -406.1578018 532.0662437 C-413.04336635 538.02161426 -419.31598131 544.65939724 -425.71639555 551.12483745 C-428.35921969 553.79451177 -431.00551379 556.46067753 -433.65389555 559.12483745 C-434.24372221 559.72296245 -434.83354887 560.32108745 -435.44124906 560.93733745 C-438.43601933 563.94933594 -441.4881896 566.8338221 -444.70272367 569.61116558 C-448.64808342 573.02158543 -452.33629334 576.63256527 -455.99764555 580.34358745 C-456.65542997 581.0051585 -457.31321439 581.66672954 -457.99093168 582.34834819 C-460.06856829 584.4380648 -462.14290181 586.5310106 -464.21639555 588.62483745 C-466.95297705 591.38825445 -469.69301818 594.14817467 -472.43514555 596.90608745 C-473.04684599 597.52608623 -473.65854642 598.14608501 -474.28878324 598.78487163 C-477.97618953 602.49277601 -481.79690626 605.96826648 -485.75313871 609.38643413 C-488.89468766 612.16817874 -491.83363823 615.13814297 -494.77889555 618.12483745 C-495.73227811 619.08389995 -495.73227811 619.08389995 -496.70492094 620.06233745 C-498.71123205 622.08072142 -500.71423556 624.10233621 -502.71639555 626.12483745 C-505.35921969 628.79451177 -508.00551379 631.46067753 -510.65389555 634.12483745 C-511.24372221 634.72296245 -511.83354887 635.32108745 -512.44124906 635.93733745 C-515.43601933 638.94933594 -518.4881896 641.8338221 -521.70272367 644.61116558 C-525.64808342 648.02158543 -529.33629334 651.63256527 -532.99764555 655.34358745 C-533.65542997 656.0051585 -534.31321439 656.66672954 -534.99093168 657.34834819 C-537.06856829 659.4380648 -539.14290181 661.5310106 -541.21639555 663.62483745 C-543.95297705 666.38825445 -546.69301818 669.14817467 -549.43514555 671.90608745 C-550.04684599 672.52608623 -550.65854642 673.14608501 -551.28878324 673.78487163 C-554.97618953 677.49277601 -558.79690626 680.96826648 -562.75313871 684.38643413 C-565.89468766 687.16817874 -568.83363823 690.13814297 -571.77889555 693.12483745 C-572.73227811 694.08389995 -572.73227811 694.08389995 -573.70492094 695.06233745 C-575.71123205 697.08072142 -577.71423556 699.10233621 -579.71639555 701.12483745 C-582.35921969 703.79451177 -585.00551379 706.46067753 -587.65389555 709.12483745 C-588.24372221 709.72296245 -588.83354887 710.32108745 -589.44124906 710.93733745 C-592.43601933 713.94933594 -595.4881896 716.8338221 -598.70272367 719.61116558 C-602.64808342 723.02158543 -606.33629334 726.63256527 -609.99764555 730.34358745 C-610.65542997 731.0051585 -611.31321439 731.66672954 -611.99093168 732.34834819 C-614.06856829 734.4380648 -616.14290181 736.5310106 -618.21639555 738.62483745 C-620.95297705 741.38825445 -623.69301818 744.14817467 -626.43514555 746.90608745 C-627.04684599 747.52608623 -627.65854642 748.14608501 -628.28878324 748.78487163 C-631.97618953 752.49277601 -635.79690626 755.96826648 -639.75313871 759.38643413 C-642.89468766 762.16817874 -645.83363823 765.13814297 -648.77889555 768.12483745 C-649.73227811 769.08389995 -649.73227811 769.08389995 -650.70492094 770.06233745 C-652.71123205 772.08072142 -654.71423556 774.10233621 -656.71639555 776.12483745 C-659.35921969 778.79451177 -662.00551379 781.46067753 -664.65389555 784.12483745 C-665.24372221 784.72296245 -665.83354887 785.32108745 -666.44124906 785.93733745 C-669.43601933 788.94933594 -672.4881896 791.8338221 -675.70272367 794.61116558 C-679.64808342 798.02158543 -683.33629334 801.63256527 -686.99764555 805.34358745 C-687.65542997 806.0051585 -688.31321439 806.66672954 -688.99093168 807.34834819 C-691.06856829 809.4380648 -693.14290181 811.5310106 -695.21639555 813.62483745 C-697.95297705 816.38825445 -700.69301818 819.14817467 -703.43514555 821.90608745 C-704.04684599 822.52608623 -704.65854642 823.14608501 -705.28878324 823.78487163 C-708.97618953 827.49277601 -712.79690626 830.96826648 -716.75313871 834.38643413 C-719.89468766 837.16817874 -722.83363823 840.13814297 -725.77889555 843.12483745 C-726.73227811 844.08389995 -726.73227811 844.08389995 -727.70492094 845.06233745 C-729.71123205 847.08072142 -731.71423556 849.10233621 -733.71639555 851.12483745 C-736.35921969 853.79451177 -739.00551379 856.46067753 -741.65389555 859.12483745 C-742.24372221 859.72296245 -742.83354887 860.32108745 -743.44124906 860.93733745 C-746.43601933 863.94933594 -749.4881896 866.8338221 -752.70272367 869.61116558 C-756.64808342 873.02158543 -760.33629334 876.63256527 -763.99764555 880.34358745 C-764.65542997 881.0051585 -765.31321439 881.66672954 -765.99093168 882.34834819 C-768.06856829 884.4380648 -770.14290181 886.5310106 -772.21639555 888.62483745 C-774.95297705 891.38825445 -777.69301818 894.14817467 -780.43514555 896.90608745 C-781.04684599 897.52608623 -781.65854642 898.14608501 -782.28878324 898.78487163 C-785.17790939 901.69005827 -788.07615152 904.41996069 -791.2704603 906.98629814 C-794.39645034 909.67720372 -796.85647324 912.5285641 -799.29242118 915.85522549 C-807.46168039 926.94783612 -816.65149104 937.58742914 -830.76138557 940.1978773 C-843.99550832 941.97977 -857.42633487 941.56197616 -870.74249487 941.25860923 C-876.56924331 941.15297593 -882.39465376 941.17663345 -888.22212006 941.19601897 C-900.11988728 941.23124978 -912.01356416 941.14224359 -923.91014211 940.97954898 C-935.66921105 940.81915133 -947.42657176 940.71574426 -959.18672674 940.68652301 C-959.92102091 940.68466704 -960.65531508 940.68281107 -961.41186059 940.68089886 C-965.14178103 940.67176241 -968.87170294 940.66362559 -972.60162648 940.65587321 C-998.9425523 940.59933358 -1025.28125883 940.41791531 -1051.62093656 940.16170269 C-1077.19112998 939.91326419 -1102.76071357 939.72223536 -1128.33187406 939.60799175 C-1129.12166654 939.60444054 -1129.91145903 939.60088933 -1130.72518461 939.59723052 C-1138.65743577 939.56162696 -1146.58969161 939.5271805 -1154.52195149 939.49358132 C-1170.67731869 939.42512466 -1186.83264646 939.3489509 -1202.98795621 939.26810222 C-1203.730564 939.26439539 -1204.47317179 939.26068856 -1205.23828285 939.25686941 C-1254.73192921 939.00893128 -1304.22427388 938.58060224 -1353.71639555 938.12483745 C-1352.76511765 937.00805179 -1351.8128437 935.89211452 -1350.86015432 934.7765327 C-1350.32996454 934.15500363 -1349.79977476 933.53347456 -1349.25351863 932.89311128 C-1347.32316714 930.67247582 -1345.29413483 928.57545934 -1343.2149307 926.49397808 C-1341.96300428 925.23732341 -1341.96300428 925.23732341 -1340.68578641 923.95528179 C-1339.80127805 923.07279766 -1338.91676969 922.19031352 -1338.00545805 921.28108745 C-1336.61500776 919.88920207 -1336.61500776 919.88920207 -1335.19646757 918.4691978 C-1333.2431403 916.51440493 -1331.2880388 914.5614093 -1329.33162992 912.60970073 C-1326.84499921 910.12875863 -1324.36287595 907.64336324 -1321.88208501 905.15658336 C-1319.48815495 902.75813499 -1317.09038267 900.36354278 -1314.69295805 897.96858745 C-1313.81249815 897.08610332 -1312.93203825 896.20361919 -1312.02489774 895.29439311 C-1311.18397581 894.45662334 -1310.34305387 893.61885356 -1309.47664945 892.75569683 C-1308.74862119 892.02846416 -1308.02059293 891.30123149 -1307.27050321 890.55196147 C-1305.26406625 888.64527938 -1303.2335085 886.84212297 -1301.13323515 885.04366069 C-1295.5935486 880.22476418 -1290.46224427 874.99438155 -1285.28670805 869.7928062 C-1284.15588962 868.66006499 -1283.02484063 867.52755391 -1281.8935806 866.39525371 C-1279.47172719 863.9702565 -1277.05143195 861.54371886 -1274.63235014 859.11595684 C-1270.80132847 855.27133088 -1266.96642224 851.43059522 -1263.13094633 847.59041362 C-1254.98978782 839.43818867 -1246.85286958 831.28173743 -1238.71639555 823.12483745 C-1229.93024454 814.31662954 -1221.14335537 805.50916562 -1212.35156362 796.70658737 C-1208.54473165 792.89479539 -1204.74034609 789.08058401 -1200.93786161 785.26445537 C-1198.56598834 782.88508429 -1196.19201047 780.50782141 -1193.81747739 778.131105 C-1192.72339885 777.03516614 -1191.63017909 775.93836913 -1190.53792112 774.8406158 C-1185.43282896 769.71066545 -1180.29561985 764.69245518 -1174.79839628 759.98099285 C-1170.1004011 755.79261339 -1165.72475433 751.25318116 -1161.28670805 746.7928062 C-1160.15588962 745.66006499 -1159.02484063 744.52755391 -1157.8935806 743.39525371 C-1155.47172719 740.9702565 -1153.05143195 738.54371886 -1150.63235014 736.11595684 C-1146.80132847 732.27133088 -1142.96642224 728.43059522 -1139.13094633 724.59041362 C-1130.98978782 716.43818867 -1122.85286958 708.28173743 -1114.71639555 700.12483745 C-1105.93024454 691.31662954 -1097.14335537 682.50916562 -1088.35156362 673.70658737 C-1084.54473165 669.89479539 -1080.74034609 666.08058401 -1076.93786161 662.26445537 C-1074.56598834 659.88508429 -1072.19201047 657.50782141 -1069.81747739 655.131105 C-1068.72339885 654.03516614 -1067.63017909 652.93836913 -1066.53792112 651.8406158 C-1061.43282896 646.71066545 -1056.29561985 641.69245518 -1050.79839628 636.98099285 C-1046.1004011 632.79261339 -1041.72475433 628.25318116 -1037.28670805 623.7928062 C-1036.15588962 622.66006499 -1035.02484063 621.52755391 -1033.8935806 620.39525371 C-1031.47172719 617.9702565 -1029.05143195 615.54371886 -1026.63235014 613.11595684 C-1022.80132847 609.27133088 -1018.96642224 605.43059522 -1015.13094633 601.59041362 C-1006.98978782 593.43818867 -998.85286958 585.28173743 -990.71639555 577.12483745 C-981.93024454 568.31662954 -973.14335537 559.50916562 -964.35156362 550.70658737 C-960.54473165 546.89479539 -956.74034609 543.08058401 -952.93786161 539.26445537 C-950.56598834 536.88508429 -948.19201047 534.50782141 -945.81747739 532.131105 C-944.72339885 531.03516614 -943.63017909 529.93836913 -942.53792112 528.8406158 C-937.43282896 523.71066545 -932.29561985 518.69245518 -926.79839628 513.98099285 C-922.1004011 509.79261339 -917.72475433 505.25318116 -913.28670805 500.7928062 C-912.15588962 499.66006499 -911.02484063 498.52755391 -909.8935806 497.39525371 C-907.47172719 494.9702565 -905.05143195 492.54371886 -902.63235014 490.11595684 C-898.80132847 486.27133088 -894.96642224 482.43059522 -891.13094633 478.59041362 C-882.98978782 470.43818867 -874.85286958 462.28173743 -866.71639555 454.12483745 C-857.93024454 445.31662954 -849.14335537 436.50916562 -840.35156362 427.70658737 C-836.54473165 423.89479539 -832.74034609 420.08058401 -828.93786161 416.26445537 C-826.56598834 413.88508429 -824.19201047 411.50782141 -821.81747739 409.131105 C-820.72339885 408.03516614 -819.63017909 406.93836913 -818.53792112 405.8406158 C-813.43282896 400.71066545 -808.29561985 395.69245518 -802.79839628 390.98099285 C-798.1004011 386.79261339 -793.72475433 382.25318116 -789.28670805 377.7928062 C-788.15588962 376.66006499 -787.02484063 375.52755391 -785.8935806 374.39525371 C-783.47172719 371.9702565 -781.05143195 369.54371886 -778.63235014 367.11595684 C-774.80132847 363.27133088 -770.96642224 359.43059522 -767.13094633 355.59041362 C-758.98978782 347.43818867 -750.85286958 339.28173743 -742.71639555 331.12483745 C-733.93024454 322.31662954 -725.14335537 313.50916562 -716.35156362 304.70658737 C-712.54473165 300.89479539 -708.74034609 297.08058401 -704.93786161 293.26445537 C-702.56598834 290.88508429 -700.19201047 288.50782141 -697.81747739 286.131105 C-696.72339885 285.03516614 -695.63017909 283.93836913 -694.53792112 282.8406158 C-689.31401177 277.59126971 -684.08085364 272.40353017 -678.42772977 267.61131816 C-675.19610503 264.80429907 -672.22185214 261.7321585 -669.21639555 258.68733745 C-668.53641508 258.00357036 -667.85643461 257.31980327 -667.15584867 256.61531597 C-665.00688629 254.4542669 -662.86122276 252.28999019 -660.71639555 250.12483745 C-657.88605718 247.26767728 -655.05226882 244.41400291 -652.21639555 241.56233745 C-651.26603422 240.59952861 -651.26603422 240.59952861 -650.29647367 239.61726909 C-646.48224984 235.7825333 -642.54816708 232.15262405 -638.44381254 228.62959819 C-636.26040492 226.72762195 -634.23213017 224.70259468 -632.21639555 222.62483745 C-628.97383295 219.34380378 -625.64592533 216.27023749 -622.14608305 213.2693687 C-618.77094625 210.29034924 -615.49889989 207.20521813 -612.21639555 204.12483745 C-607.12933401 199.35938953 -602.01987148 194.6498215 -596.71639555 190.12483745 C-595.68362498 189.23837318 -594.65109627 188.3516271 -593.6187393 187.4646812 C-591.22412291 185.40833524 -588.82654816 183.35550277 -586.42733305 181.30452495 C-584.00818175 179.23513047 -581.59700821 177.15706438 -579.19295805 175.07014995 C-572.360386 169.15050543 -565.40890242 163.44073728 -558.2671768 157.89827495 C-555.86743705 156.0337956 -553.49241995 154.14332057 -551.1343643 152.22639995 C-541.59270808 144.472845 -531.74598289 137.23288719 -521.71639555 130.12483745 C-520.91008695 129.54943218 -520.10377836 128.9740269 -519.27303617 128.38118511 C-507.34164088 119.86984107 -495.22781058 111.75925773 -482.71639555 104.12483745 C-481.8847891 103.61630229 -481.05318266 103.10776714 -480.19637601 102.58382183 C-400.7277426 54.23124548 -313.29084647 27.62982701 -93.90389555 2.43733745 C-92.69889402 2.37639904 -91.49389249 2.31546062 -90.25237577 2.25267559 C-60.1760266 0.75666886 -30.1132903 -0.03459315 0 0 Z " fill="#FF1E00" transform="translate(1398.7163955457509,610.8751625493169)"/>
<path d="M0 0 C5.99152355 0.00310744 11.98304481 0.00142224 17.97456852 -0.00008357 C30.35764826 -0.00303008 42.74072326 -0.0013001 55.1238024 0.00306072 C67.65451254 0.00745396 80.18522023 0.00963156 92.71593116 0.00915851 C93.90743578 0.00911547 93.90743578 0.00911547 95.1230112 0.00907157 C99.17403293 0.00891517 103.22505467 0.00872322 107.2760764 0.00851873 C136.52437699 0.0071148 165.77267541 0.01052962 195.02097533 0.01653614 C223.96931427 0.02246679 252.91765227 0.02631286 281.86599181 0.02738895 C282.76637005 0.02742336 283.66674828 0.02745777 284.5944107 0.02749323 C292.81847088 0.02780645 301.04253105 0.02809413 309.26659123 0.0283512 C329.70696278 0.02899044 350.14733431 0.02994967 370.58770583 0.0311264 C371.51832076 0.03117972 372.44893569 0.03123303 373.40775107 0.03128797 C418.63187132 0.03390691 463.85599096 0.04021342 509.08011077 0.04682674 C524.76588144 0.04911848 540.4516521 0.05139389 556.13742278 0.05360164 C557.59675345 0.05380707 557.59675345 0.05380707 559.08556555 0.05401664 C604.34733493 0.06036553 649.60910442 0.06408786 694.87087413 0.06713644 C697.81078227 0.0673345 700.7506904 0.06753369 703.69059853 0.06773312 C723.17419248 0.06905295 742.65778642 0.07032759 762.14138037 0.07157198 C800.90597498 0.07404821 839.67056956 0.07678988 878.43516414 0.07971402 C880.28106458 0.07985326 882.12696502 0.07999232 883.97286545 0.08013119 C967.02765717 0.08638099 1050.08244843 0.09571792 1133.13723968 0.10639705 C1134.30331032 0.10654696 1134.30331032 0.10654696 1135.49293794 0.10669989 C1174.36883803 0.11169993 1213.24473808 0.11687637 1252.12063811 0.12226619 C1250.31267116 4.0168089 1247.81346335 6.70548607 1244.78811858 9.69770565 C1243.97302573 10.51564601 1243.97302573 10.51564601 1243.14146636 11.35011043 C1241.34510078 13.1501776 1239.54163766 14.94294468 1237.73782561 16.73554744 C1236.48153003 17.99064993 1235.22560497 19.2461234 1233.97003387 20.50195064 C1231.33516621 23.13525407 1228.69697454 25.76516546 1226.05618499 28.39252986 C1222.68889971 31.74290429 1219.32815471 35.09974373 1215.96969626 38.45896377 C1213.37387519 41.05451129 1210.77544291 43.6474315 1208.1761534 46.23950519 C1206.93734352 47.47515467 1205.69911921 48.71139153 1204.46151565 49.94824924 C1202.7200047 51.68756394 1200.97522185 53.42353111 1199.22952483 55.15864315 C1198.72843703 55.66018413 1198.22734923 56.16172512 1197.71107696 56.67846431 C1195.64448752 58.72698173 1193.59727258 60.73492071 1191.33703772 62.5717408 C1185.58128145 67.26559072 1181.60185496 72.61931825 1177.43049834 78.72278156 C1175.894543 80.91947934 1174.35655331 83.11465252 1172.81669353 85.30860521 C1172.2097402 86.17650005 1172.2097402 86.17650005 1171.59052518 87.06192812 C1115.99499566 166.49814484 1050.5328654 245.80420949 867.41553543 343.50688951 C813.11064243 352.8205344 757.76698233 353.83155863 702.80813811 353.66132869 C700.32274245 353.65635371 697.8373467 353.65142159 695.35195087 353.64653232 C633.07229404 353.4878191 570.95897799 350.90737133 508.78830678 347.39956009 C470.74756152 345.25893391 432.72770374 343.78772743 394.6391928 342.82636776 C393.32996523 342.79309888 392.02073766 342.75983001 390.67183652 342.72555298 C376.20227125 342.35856222 361.73235585 342.00713093 347.26223777 341.6627089 C321.70607678 341.05345246 296.15184218 340.37323822 270.59842132 339.6587347 C268.74537227 339.60710722 268.74537227 339.60710722 266.8548879 339.55443676 C229.44175516 338.50857624 192.05273248 337.1272238 154.66433929 335.4122137 C153.53197827 335.36037777 152.39961725 335.30854184 151.23294226 335.25513512 C128.83793661 334.22818399 106.44560824 333.15318156 84.05682866 331.99830329 C77.40090926 331.65548332 70.74442865 331.32418341 64.08778743 330.99570541 C59.7548416 330.78079938 55.42255313 330.55887518 51.09102116 330.3170279 C-18.79082021 326.42035749 -100.53852702 332.58573986 -155.61373689 380.50117244 C-157.20891892 381.92958544 -158.7954331 383.36782576 -160.36764314 384.82148494 C-161.72239174 386.06245995 -163.09462644 387.28939939 -164.54579951 388.41610231 C-170.5392512 393.22253232 -174.63849626 399.07620584 -178.9286433 405.36544748 C-215.95526622 459.3183725 -266.76620883 524.73473557 -334.43649079 537.50410213 C-365.24047087 542.90863379 -396.58936285 543.51613738 -427.78561189 543.40351619 C-428.45711186 543.4017647 -429.12861183 543.40001321 -429.82046028 543.39820864 C-463.78349467 543.30960953 -497.66305141 542.01352229 -531.57078804 540.15014233 C-553.09133746 538.96753995 -574.59854015 538.12686436 -596.14498689 537.59296932 C-597.22076881 537.56613798 -597.22076881 537.56613798 -598.3182837 537.53876459 C-605.52580099 537.35932339 -612.73345142 537.18583115 -619.94121713 537.01667973 C-634.6019798 536.67248697 -649.26161936 536.28880227 -663.92074372 535.88093319 C-664.59357284 535.86226175 -665.26640195 535.84359032 -665.95961983 535.82435308 C-710.29306362 534.58957083 -754.59057365 532.43389458 -798.87936189 530.12226619 C-794.54858234 524.94482347 -790.00335441 520.10794179 -785.21958711 515.34896602 C-784.09224527 514.2214009 -784.09224527 514.2214009 -782.94212886 513.07105668 C-780.43667577 510.56629509 -777.92767267 508.0651207 -775.41866853 505.56391658 C-773.61613381 503.76330209 -771.81382742 501.96245901 -770.01173188 500.16140499 C-766.13688091 496.28971054 -762.26053964 492.41951794 -758.38288857 488.55062809 C-752.76841816 482.94874906 -747.15722115 477.34360014 -741.54689653 471.7375694 C-732.43234271 462.6300742 -723.31592324 453.52444912 -714.1979654 444.4203619 C-713.65292147 443.87614577 -713.10787753 443.33192965 -712.54631711 442.77122213 C-708.12489321 438.35654158 -703.70337866 433.94195183 -699.28185918 429.52736702 C-695.41824048 425.66980073 -691.55465762 421.81219855 -687.69112946 417.95454158 C-687.14705644 417.41129669 -686.60298342 416.86805179 -686.04242333 416.30834493 C-676.95850545 407.2381309 -667.87656475 398.16593961 -658.79602309 389.09234556 C-653.20233263 383.50312577 -647.60687505 377.91568643 -642.00909508 372.33056237 C-637.71711999 368.04803845 -633.42771083 363.7629539 -629.13922097 359.47693958 C-627.38374326 357.72333056 -625.62740294 355.97058456 -623.8701265 354.21877803 C-621.46645955 351.82235633 -619.06592976 349.42283379 -616.66612031 347.02255001 C-615.97466843 346.33469309 -615.28321655 345.64683617 -614.57081159 344.93813511 C-611.40460283 341.76524392 -608.34300067 338.55193142 -605.41411187 335.15785732 C-601.64422343 330.79392487 -597.61905044 326.72280358 -593.53660371 322.65252437 C-592.72364034 321.83800101 -591.91067697 321.02347766 -591.07307835 320.18427177 C-588.36577077 317.47299595 -585.65492741 314.76528425 -582.94405915 312.05756893 C-580.99495833 310.107662 -579.04660245 308.15701131 -577.09820344 306.20640316 C-572.36544564 301.46921155 -567.63000394 296.73471179 -562.89357683 292.00118918 C-559.0423352 288.15221099 -555.19207688 284.30225172 -551.34251 280.45159854 C-550.79347133 279.90240664 -550.24443266 279.35321473 -549.67875645 278.78738064 C-548.56320781 277.67151226 -547.4476614 276.55564165 -546.33211721 275.43976882 C-535.88503104 264.98983485 -525.43488865 254.5429615 -514.98368938 244.09714135 C-506.02684789 235.14476726 -497.0726314 226.18977465 -488.12032868 217.2328619 C-477.71047822 206.81765329 -467.29899892 196.40407737 -456.88493558 185.99308105 C-455.77329814 184.88176215 -454.66166279 183.77044116 -453.55002953 182.65911808 C-453.0031622 182.11240502 -452.45629487 181.56569196 -451.8928558 181.00241184 C-448.04939289 177.15981036 -444.20708747 173.31605384 -440.36523416 169.47184314 C-435.67977134 164.78356837 -430.99251593 160.09709458 -426.30299207 155.4128818 C-423.91290844 153.02541636 -421.5238903 150.63691082 -419.13650491 148.24674549 C-416.54301475 145.65051441 -413.94645034 143.05739651 -411.34910371 140.46502437 C-410.60288257 139.71657251 -409.85666143 138.96812065 -409.08782752 138.19698842 C-405.0507633 134.17486111 -400.92211372 130.32468173 -396.5940487 126.61656376 C-394.23813111 124.56345301 -392.05866098 122.36046526 -389.87936189 120.12226619 C-386.34285194 116.54801909 -382.73974177 113.14961275 -378.91842439 109.88398494 C-376.65243959 107.9262088 -374.45792695 105.89997671 -372.25436189 103.87226619 C-367.21160715 99.32223864 -361.92645641 95.15154613 -356.55904939 90.99726619 C-354.13552206 89.11784828 -351.74850385 87.20421302 -349.38717439 85.24726619 C-334.06313854 72.59186855 -317.34820806 61.96569235 -300.00192048 52.30683651 C-298.08380969 51.23636566 -296.17821133 50.14668349 -294.27389314 49.05195369 C-235.25146337 16.10610024 -164.73605351 7.02779148 -98.37936189 2.43476619 C-97.50706941 2.37382778 -96.63477693 2.31288936 -95.73605134 2.25010433 C-63.82663641 0.05714314 -31.969083 -0.02196215 0 0 Z " fill="#FF1E00" transform="translate(1469.8793618865311,1018.8777338070795)"/>
<path d="M0 0 C7.17530218 0.12219738 14.34884659 0.10717406 21.52493359 0.08885813 C34.76257124 0.05878529 47.99754911 0.13491485 61.23441328 0.27325848 C74.32527278 0.40972301 87.41502247 0.49794837 100.50658811 0.5228732 C101.73113349 0.52524471 101.73113349 0.52524471 102.98041717 0.52766414 C107.12693662 0.53544666 111.27345704 0.54237817 115.41997852 0.54898229 C144.72984802 0.59719094 174.03827332 0.75186334 203.34733022 0.96994237 C231.80656243 1.1814525 260.2653983 1.34424237 288.72525991 1.44162205 C290.04296174 1.44615971 290.04296174 1.44615971 291.38728381 1.45078903 C300.2098556 1.48111705 309.03243043 1.51046047 317.85500791 1.53908279 C335.82488692 1.59740331 353.79474023 1.66229209 371.76458181 1.73115758 C372.59066261 1.73431524 373.4167434 1.73747291 374.26785695 1.74072627 C429.35818573 1.95205983 484.44769542 2.31694714 539.53702749 2.70504979 C535.5698414 7.35966482 531.55827235 11.97076505 527.49767918 16.54403851 C526.91642234 17.19949695 526.33516549 17.85495539 525.7362948 18.53027621 C523.79120668 20.72294417 521.84504008 22.91465084 519.89864267 25.10615662 C519.20842216 25.88352245 518.51820165 26.66088827 517.80706537 27.46181063 C497.49072874 50.33998792 477.11333914 73.16367196 456.70817007 95.96261815 C456.20992775 96.51934238 455.71168544 97.07606661 455.19834488 97.64966127 C401.27719166 157.89710711 346.8857568 217.67608442 291.5562383 276.63463048 C290.94117017 277.29015371 290.32610203 277.94567694 289.69239547 278.62106451 C262.92087663 307.15340977 236.08566546 335.62510189 209.17053542 364.02201569 C195.95222436 377.96816032 182.74607746 391.92577435 169.55150663 405.89438227 C167.56244862 407.99998228 165.57304074 410.10525134 163.58361823 412.21050695 C124.90153637 453.15264315 87.06599311 494.74202225 49.82928691 537.00120144 C-9.95104164 604.83778127 -71.02742071 671.2289387 -134.77744474 735.36601912 C-136.69408957 737.2955462 -138.60893995 739.22683667 -140.52323492 741.15869489 C-201.29368899 802.47529415 -264.78471271 862.83311858 -631.5768622 972.37103641 C-711.5822717 972.72163149 -792.1067321 966.77040391 -984.46297251 940.70504979 C-983.51756291 939.59349803 -982.57091707 938.48299766 -981.62376105 937.37293366 C-981.09673242 936.7544096 -980.56970379 936.13588555 -980.0267046 935.49861834 C-977.88571408 933.04294624 -975.61346466 930.74371485 -973.3030604 928.44748143 C-972.58709444 927.73370587 -972.58709444 927.73370587 -971.85666453 927.0055106 C-970.83315194 925.98576547 -969.80848737 924.96717546 -968.78275286 923.94966534 C-967.15226587 922.3321077 -965.52506841 920.71130209 -963.8986262 919.08967808 C-959.86000312 915.06432455 -955.81593361 911.0444574 -951.77199351 907.02444676 C-948.34652524 903.61883073 -944.92319621 900.21109048 -941.50258242 896.80059842 C-939.91227005 895.21668971 -938.31893858 893.63586379 -936.72543894 892.0551627 C-935.73423506 891.06759718 -934.74317458 890.07988769 -933.75227915 889.09201268 C-932.89767603 888.24264638 -932.04307291 887.39328007 -931.16257273 886.5181754 C-929.11480528 884.38429386 -927.17772136 882.23539308 -925.25291048 879.99540833 C-921.69434073 875.91731403 -917.95900554 872.06356482 -914.12436472 868.24618748 C-913.41602154 867.53699005 -912.70767835 866.82779261 -911.97787022 866.09710434 C-909.61272158 863.73031637 -907.2440268 861.36711046 -904.87532603 859.00387791 C-903.15814129 857.28697331 -901.44117827 855.56984694 -899.72441756 853.85251835 C-895.99595466 850.12382181 -892.26595099 846.39667684 -888.53457056 842.67090062 C-882.98580401 837.13044427 -877.43993794 831.58709136 -871.89467462 826.043129 C-862.56346396 816.71425046 -853.22999923 807.38763025 -843.89531504 798.06222752 C-831.1463996 785.32592741 -818.40077605 772.58633684 -805.65602445 759.84587029 C-799.71555893 753.90741087 -793.77493274 747.96911219 -787.83426463 742.03085545 C-786.94226852 741.13922087 -786.94226852 741.13922087 -786.03225229 740.22957346 C-771.88431911 726.08744904 -757.73481255 711.94689914 -743.58504282 697.80661229 C-742.65660426 696.87879419 -742.65660426 696.87879419 -741.70940936 695.93223229 C-731.6650971 685.89463687 -721.62068934 675.85713702 -711.57626974 665.81964902 C-702.16443503 656.41430732 -692.75263532 647.00893062 -683.3409022 637.60348729 C-682.4129645 636.67617147 -682.4129645 636.67617147 -681.46628058 635.730122 C-667.3406429 621.61393397 -653.2154559 607.49729536 -639.0916804 593.37924412 C-638.49796945 592.78577417 -637.90425851 592.19230422 -637.29255633 591.58085034 C-631.36511776 585.65579721 -625.43775793 579.73066532 -619.51051562 573.80541587 C-606.78046407 561.07967928 -594.04903687 548.35532335 -581.31481333 535.63376144 C-572.03288717 526.36102242 -562.7526787 517.08656737 -553.47425662 507.81032208 C-547.96283764 502.30031715 -542.45000576 496.79173455 -536.93515388 491.28516549 C-532.81701058 487.17290346 -528.70148187 483.05803179 -524.58695864 478.94214753 C-522.92238864 477.27784908 -521.25696703 475.61440187 -519.59061049 473.95189217 C-517.32527505 471.691544 -515.06305895 469.42811805 -512.8015803 467.16391209 C-512.15456262 466.51980728 -511.50754495 465.87570246 -510.84092068 465.21207932 C-507.76941302 462.13055005 -504.81103059 458.99868515 -501.96492468 455.70700196 C-498.50331642 451.70373638 -494.84262018 447.94764611 -491.09312998 444.21495274 C-490.38141005 443.50237856 -489.66969011 442.78980438 -488.93640291 442.05563704 C-486.55976756 439.67736222 -484.17958576 437.30266961 -481.79939829 434.92795018 C-480.07396396 433.20279598 -478.34875133 431.47742001 -476.62374102 429.75184182 C-472.87725338 426.00512051 -469.12922485 422.25995085 -465.37981974 418.51614979 C-459.80425079 412.94889082 -454.2315821 407.3787355 -448.65951626 401.80797065 C-439.28322776 392.43401429 -429.90468516 383.06231629 -420.52492319 373.69183568 C-407.71446967 360.8939973 -394.90730786 348.09286861 -382.10101806 335.29086391 C-376.13191637 329.32376831 -370.162654 323.35683345 -364.19334971 317.38994053 C-363.29705299 316.49400534 -363.29705299 316.49400534 -362.38264928 315.57997045 C-348.16641969 301.36954966 -333.94861674 287.16070336 -319.73055064 272.9521201 C-319.10860191 272.33058502 -318.48665318 271.70904993 -317.84585752 271.06868045 C-307.75302437 260.98256415 -297.66009572 250.8965434 -287.56715523 240.81053451 C-278.1098561 231.35972838 -268.65259195 221.90888725 -259.19539439 212.45797947 C-258.57378114 211.83678082 -257.9521679 211.21558216 -257.31171789 210.57555931 C-243.11790609 196.39119713 -228.92454496 182.20638439 -214.73259531 168.02015904 C-214.13602188 167.4238266 -213.53944845 166.82749416 -212.92479703 166.21309104 C-206.9687875 160.25946695 -201.0128567 154.30576409 -195.05704342 148.35194367 C-182.26551102 135.56472628 -169.47260292 122.77888958 -156.67689865 109.99584675 C-147.35016424 100.67829937 -138.02514743 91.35903607 -128.70191704 82.0379825 C-123.16383664 76.50131617 -117.62434323 70.96607222 -112.08283004 65.43284165 C-107.94483999 61.30073266 -103.8094643 57.16601426 -99.67509424 53.03028313 C-98.00244892 51.35790937 -96.32895192 49.68638691 -94.65452014 48.01580182 C-92.37829328 45.74456186 -90.10518523 43.47024446 -87.83281504 41.19514683 C-87.18258867 40.54783333 -86.53236231 39.90051982 -85.86243211 39.23359076 C-79.87322147 33.22493008 -74.25378042 27.20103982 -69.74399268 19.98434571 C-52.5961494 -3.89782356 -26.81222588 -0.47511397 0 0 Z " fill="#FF1E00" transform="translate(3255.4629725110717,608.2949502128176)"/>
</svg>
